<?xml version="1.0" encoding="utf-8"?>
<!-- Generator: Adobe Illustrator 17.0.0, SVG Export Plug-In . SVG Version: 6.00 Build 0)  -->
<!DOCTYPE svg PUBLIC "-//W3C//DTD SVG 1.1//EN" "http://www.w3.org/Graphics/SVG/1.1/DTD/svg11.dtd">
<svg version="1.1" id="Layer_1" xmlns="http://www.w3.org/2000/svg" xmlns:xlink="http://www.w3.org/1999/xlink" x="0px" y="0px"
	 width="2160.216px" height="688px" viewBox="0 0 2160.216 688" enable-background="new 0 0 2160.216 688" xml:space="preserve">
<g>
	<path fill="#FFFFFF" d="M205.53,515.666c0-35.31,0-70.242,0-105.419c581.816,0,1163.39,0,1745.362,0c0,34.983,0,70.033,0,105.419
		C1369.289,515.666,787.597,515.666,205.53,515.666z M1678.766,423.01c-22.51,0-44.658-0.56-66.754,0.264
		c-9.369,0.35-16.311,6.325-18.892,16.025c-4.43,16.649,5.847,30.392,23.447,31.025c9.152,0.329,18.326,0.016,27.488,0.099
		c5.484,0.05,11.031-0.162,16.431,0.589c6.803,0.947,9.991,6.754,8.047,13.352c-1.657,5.623-5.336,7.806-13.934,7.839
		c-18.494,0.072-36.988,0.016-55.481,0.035c-1.758,0.002-3.515,0.157-5.211,0.239c0,5.164,0,9.733,0,14.524
		c22.538,0,44.697,0.396,66.832-0.149c13.319-0.328,21.897-9.862,22.317-22.897c0.499-15.483-6.027-23.838-20.295-25.81
		c-2.461-0.34-4.986-0.296-7.481-0.302c-12.163-0.029-24.326,0.028-36.488-0.031c-6.371-0.031-9.906-2.74-10.884-8.077
		c-1.354-7.387,3.172-12.265,11.735-12.306c17.66-0.085,35.322-0.027,52.982-0.028c1.951,0,3.901,0,6.141,0
		C1678.766,432.356,1678.766,427.931,1678.766,423.01z M770.818,507.047c16.494,0,32.479,0.005,48.464-0.001
		c18.047-0.007,32.889-10.004,38.591-26.992c9.643-28.731-6.494-58.148-39.907-57.501c-13.824,0.268-27.657,0.044-41.486,0.044
		c-1.788,0-3.576,0-5.663,0C770.818,450.935,770.818,478.673,770.818,507.047z M536.902,422.328
		c-0.004,0.103-0.009,0.205-0.013,0.308c-4.327,0-8.664-0.181-12.981,0.031c-21.728,1.064-37.369,16.023-38.693,36.883
		c-1.539,24.254,11.539,43.109,33.341,46.659c8.446,1.375,17.239,0.78,25.874,0.809c24.858,0.084,40.978-14.543,43.503-39.299
		c2.248-22.042-11.274-40.707-32.624-44.372C549.293,422.313,543.044,422.63,536.902,422.328z M242.185,483.771
		c11.24,0,22.192,0.06,33.142-0.012c24.679-0.163,34.908-18.22,30.439-39.814c-2.859-13.813-13.501-21.175-29.743-21.309
		c-18.324-0.151-36.65-0.042-54.975-0.024c-1.303,0.001-2.606,0.183-4.161,0.3c0,28.099,0,55.966,0,83.803c4.957,0,9.537,0,14.67,0
		c0-23.2,0-46.072,0-69.311c5.865,0,11.175-0.033,16.485,0.007c10.155,0.075,20.346-0.303,30.454,0.439
		c9.023,0.662,13.913,6.976,13.732,15.878c-0.179,8.802-5.549,14.538-14.533,15.247c-3.81,0.301-7.652,0.229-11.48,0.245
		c-7.948,0.032-15.896,0.01-24.028,0.01C242.185,474.322,242.185,478.747,242.185,483.771z M1414.473,507.042
		c-6.766-11.248-12.933-21.505-19.104-31.759c-9.696-16.112-19.349-32.251-29.113-48.322c-4.611-7.59-10.655-7.536-15.438-0.021
		c-0.268,0.421-0.501,0.864-0.758,1.292c-14.927,24.821-29.859,49.64-44.77,74.471c-0.731,1.218-1.281,2.545-2.175,4.345
		c4.745,0,8.889-0.215,12.999,0.072c2.963,0.207,4.499-1.054,5.855-3.447c3.773-6.658,7.709-13.224,11.609-19.81
		c8.017-13.54,16.052-27.07,24.446-41.221c6.267,10.533,12.173,20.46,18.558,31.192c-8.028,0-15.121-0.08-22.21,0.066
		c-1.478,0.03-3.564,0.448-4.292,1.461c-2.267,3.152-4.017,6.677-6.331,10.687c12.269,0,23.582,0.216,34.879-0.114
		c4.101-0.12,6.322,1.282,8.125,4.775c2.44,4.725,5.246,9.277,8.147,13.738c0.765,1.176,2.42,2.403,3.732,2.48
		C1403.57,507.217,1408.537,507.042,1414.473,507.042z M1126.759,422.597c-11.313,0-22.275-0.082-33.235,0.03
		c-6.981,0.071-14.106-0.401-20.911,0.809c-22.34,3.972-35.486,23.536-32.223,46.985c3.106,22.32,19.505,36.625,41.99,36.627
		c11.323,0.001,22.647,0,33.97,0c3.433,0,6.866,0,10.343,0c0-5.244,0-9.8,0-14.819c-14.148,0-27.935,0.057-41.722-0.04
		c-3.474-0.024-7.053-0.091-10.397-0.908c-13.316-3.252-20.968-15.702-19.248-30.813c1.539-13.517,11.973-22.804,26.312-23.018
		c13.152-0.197,26.309-0.045,39.464-0.046c1.786,0,3.572,0,5.656,0C1126.759,432.379,1126.759,427.956,1126.759,422.597z
		 M1940.22,422.944c-26.355,0-52.26,0-78.326,0c0,4.905,0,9.459,0,14.553c10.638,0,20.91,0,31.768,0c0,23.451,0,46.359,0,69.241
		c5.202,0,9.795,0,14.797,0c0-23.074,0-45.843,0-69.315c10.777,0,21.162,0,31.761,0
		C1940.22,432.284,1940.22,427.848,1940.22,422.944z"/>
	<path fill="#FFFFFF" d="M1125.724,353.728c0-59.833,0-119.385,0-179.29c1.864-0.1,3.479-0.262,5.095-0.263
		c41.984-0.014,83.969-0.127,125.953,0.05c15.162,0.064,29.894,2.393,42.548,11.802c19.566,14.546,22.149,48.975,4.724,65.253
		c-3.337,3.117-7.51,5.34-11.371,8.028c0.011,0.024,0.061,0.414,0.24,0.489c26.345,10.874,30.641,38.12,21.752,61.622
		c-8.338,22.045-26.456,31.982-48.914,32.352c-45.637,0.751-91.296,0.228-136.946,0.216
		C1127.845,353.987,1126.884,353.829,1125.724,353.728z M1157.431,206c0,39.177,0,77.743,0,116.548
		c1.076,0.112,1.873,0.267,2.671,0.268c30.325,0.012,60.655,0.326,90.97-0.209c7.797-0.137,15.82-2.168,23.241-4.758
		c7.577-2.644,11.795-8.893,12.124-17.31c0.513-13.163-6.095-21.492-19.16-23.727c-3.262-0.558-6.618-0.769-9.932-0.777
		c-23.993-0.063-47.986-0.034-71.979-0.034c-1.788,0-3.575,0-5.635,0c0-8.931,0-17.356,0-26.506c2.033,0,3.979,0,5.926,0
		c20.827,0,41.655,0.033,62.482-0.023c5.325-0.014,10.668-0.081,15.969-0.528c10.266-0.865,16.207-5.396,18.271-13.493
		c4.004-15.706-3.059-26.621-19.144-28.318c-9.903-1.045-19.941-1.031-29.92-1.086C1208.175,205.908,1183.034,206,1157.431,206z"/>
	<path fill="#FFFFFF" d="M636.868,353.992c-12.5,0-24.278,0.1-36.05-0.141c-1.308-0.027-2.979-1.758-3.801-3.112
		c-7.51-12.376-14.989-24.776-22.193-37.331c-1.885-3.285-3.897-4.546-7.786-4.513C542.386,309.103,517.73,309,493.076,309
		c-1.769,0-3.538,0-6.193,0c4.997-8.553,9.467-16.472,14.293-24.167c0.694-1.107,3.101-1.585,4.721-1.598
		c14.825-0.119,29.651-0.07,44.477-0.07c1.791,0,3.581,0,6.369,0c-13.397-22.503-26.352-44.265-39.664-66.625
		c-9.702,16.387-19.005,32.086-28.295,47.792c-16.943,28.642-33.926,57.259-50.744,85.974c-1.66,2.834-3.412,3.843-6.655,3.774
		c-10.259-0.217-20.526-0.08-31.486-0.08c1.094-2.07,1.774-3.518,2.592-4.882c33.314-55.506,66.637-111.006,99.97-166.5
		c3.071-5.112,6.688-9.607,13.11-10.572c8.236-1.239,13.652,2.788,17.667,9.47c10.199,16.975,20.415,33.939,30.63,50.904
		c23.26,38.632,46.525,77.261,69.78,115.896C634.646,349.973,635.561,351.682,636.868,353.992z"/>
	<path fill="#FFFFFF" d="M1436.073,216.538c-11.832,19.993-23.256,39.291-34.673,58.592c-14.825,25.062-29.683,50.104-44.41,75.224
		c-1.507,2.571-3.012,3.799-6.173,3.731c-10.413-0.226-20.834-0.085-31.961-0.085c1.142-2.126,1.842-3.571,2.665-4.942
		c33.317-55.504,66.642-111.003,99.977-166.496c3.073-5.116,6.708-9.581,13.139-10.526c8.25-1.212,13.628,2.863,17.636,9.535
		c10.197,16.976,20.417,33.937,30.632,50.902c23.261,38.632,46.525,77.262,69.783,115.896c0.935,1.552,1.823,3.132,3.027,5.206
		c-1.589,0.169-2.786,0.403-3.984,0.407c-9.828,0.03-19.66-0.123-29.484,0.096c-3.226,0.072-5.031-0.884-6.675-3.738
		c-7.223-12.545-14.837-24.864-22.049-37.415c-1.728-3.008-3.637-4.024-7.054-4.004c-24.82,0.146-49.641,0.078-74.463,0.078
		c-1.755,0-3.509,0-6.129,0c5.026-8.601,9.5-16.526,14.334-24.224c0.69-1.098,3.121-1.532,4.752-1.544
		c14.825-0.115,29.651-0.067,44.477-0.068c1.781,0,3.562,0,6.306,0C1462.323,260.619,1449.364,238.857,1436.073,216.538z"/>
	<path fill="#FFFFFF" d="M811.107,174.164c0,10.812,0,20.941,0,31.836c-1.769,0-3.518,0-5.267,0c-29.994,0-59.988,0-89.982,0
		c-34.701,0-58.271,24.033-57.644,58.777c0.528,29.244,17.65,51.085,44.632,56.637c4.04,0.831,8.268,1.023,12.411,1.035
		c29.827,0.084,59.654,0.045,89.482,0.045c1.973,0,3.947,0,6.233,0c0,10.523,0,20.612,0,31.506c-1.589,0-3.333,0-5.076,0
		c-30.827,0-61.654,0-92.481,0c-40.627-0.001-75.068-27.347-84.029-67.143c-6.097-27.08-3.649-53.183,12.237-76.628
		c15.559-22.962,38.288-34.24,65.551-35.547c21.114-1.012,42.305-0.43,63.462-0.509
		C783.941,174.124,797.247,174.164,811.107,174.164z"/>
	<path fill="#FFFFFF" d="M1730.077,174.164c0,10.757,0,20.886,0,31.836c-1.677,0-3.418,0-5.159,0c-29.994,0-59.988,0-89.981,0
		c-34.366,0-57.713,23.318-57.771,57.699c-0.049,29.429,17.35,52.047,44.604,57.693c4.038,0.837,8.266,1.043,12.408,1.055
		c29.827,0.086,59.654,0.046,89.481,0.046c1.979,0,3.959,0,6.278,0c0,10.599,0,20.798,0,31.506c-1.894,0-3.678,0-5.463,0
		c-30.66,0-61.321,0-91.981,0c-45.246-0.001-82.283-34.252-86.324-79.338c-1.766-19.699,0.138-38.682,9.534-56.248
		c14.974-27.991,39.337-42.061,70.394-43.684c23.764-1.242,47.635-0.468,71.458-0.559
		C1708.201,174.13,1718.847,174.164,1730.077,174.164z"/>
	<path fill="#FFFFFF" d="M1032.062,175.544c0,58.92,0,117.84,0,177.738c-40.338-30.559-80.062-60.653-120.36-91.182
		c40.021-29.586,80.237-60.232,119.992-89.194C1031.894,173.657,1032.062,174.516,1032.062,175.544z"/>
	<path fill="#FFFFFF" d="M1950.992,353.239c-40.398-30.61-80.058-60.66-119.752-90.736c8.855-9.392,115.479-87.224,119.752-87.294
		C1950.992,234.244,1950.992,293.276,1950.992,353.239z"/>
	<path fill="#FFFFFF" d="M259.2,248.916c29.868,0,59.625,0,89.943,0c0-25.01,0-49.567,0-74.435c10.651,0,20.744,0,31.246,0
		c0,59.873,0,119.759,0,180c-10.147,0-20.215,0-30.902,0c0-25.626,0-51.332,0-77.487c-30.364,0-60.118,0-90.287,0
		C259.2,267.491,259.2,258.438,259.2,248.916z"/>
	<path fill="#FFFFFF" d="M236.034,354.558c-10.339,0-20.427,0-30.885,0c0-59.927,0-119.784,0-180.018c10.277,0,20.458,0,30.885,0
		C236.034,234.581,236.034,294.43,236.034,354.558z"/>
	<path fill="#FFFFFF" d="M837.174,174.343c10.473,0,20.426,0,30.746,0c0,59.828,0,119.479,0,179.394c-10.168,0-20.26,0-30.746,0
		C837.174,294.073,837.174,234.42,837.174,174.343z"/>
	<path fill="#FFFFFF" d="M1786.875,353.747c-10.396,0-20.487,0-30.834,0c0-59.796,0-119.338,0-179.232c10.293,0,20.355,0,30.834,0
		C1786.875,234.088,1786.875,293.737,1786.875,353.747z"/>
	<path fill="#FFFFFF" d="M878.513,353.743c0-28.296,0-56.167,0-83.202c34.747,27.374,69.766,54.964,105.61,83.202
		C948.301,353.743,913.619,353.743,878.513,353.743z"/>
	<path fill="#FFFFFF" d="M1903.191,353.774c-35.919,0-70.609,0-105.601,0c0-28.125,0-56.103,0-83.141
		C1832.222,297.9,1867.187,325.428,1903.191,353.774z"/>
	<path fill="#FFFFFF" d="M878.463,253.035c0-25.149,0-51.279,0-77.722c33.359,0,66.543,0,100.891,0
		C945.03,201.755,911.532,227.56,878.463,253.035z"/>
	<path fill="#FFFFFF" d="M1797.296,253.168c0-24.613-0.001-50.105,0.008-75.598c0-0.644,0.115-1.289,0.207-2.245
		c33.292,0,66.48,0,100.824,0C1864.04,201.746,1830.546,227.551,1797.296,253.168z"/>
	<path fill="#FFFFFF" d="M785.64,437.947c13.02,0,25.691-0.831,38.204,0.223c13.74,1.158,22.201,13.097,21.667,28.172
		c-0.493,13.904-10.317,24.9-23.76,25.51c-11.913,0.541-23.87,0.113-36.11,0.113C785.64,473.893,785.64,455.999,785.64,437.947z"/>
	<path fill="#FFFFFF" d="M536.4,492.041c-3.825,0-7.664,0.221-11.471-0.039c-14.77-1.009-24.509-11.506-24.864-26.6
		c-0.354-15.062,8.929-26.431,23.636-27.622c9.072-0.735,18.348-0.705,27.387,0.297c13.781,1.528,22.619,13.425,22.028,28.08
		c-0.569,14.116-10.615,24.882-24.248,25.764c-4.139,0.268-8.311,0.042-12.467,0.042C536.4,491.989,536.4,492.015,536.4,492.041z"/>
</g>
</svg>
